<svg xmlns="http://www.w3.org/2000/svg" xmlns:svg="http://www.w3.org/2000/svg" id="svg1" width="24" height="24" fill="#e8eaed" version="1.1" viewBox="0 -960 960 960"><path id="path1" d="m 371.6129,-297.29032 c 31.83261,9.00706 50.17219,22.20317 123.87097,21.67742 36.12903,-2.06451 70.45161,-10.06452 102.96774,-24 32.51613,-13.93549 62.19356,-34.83871 89.03226,-62.70968 v -68.12903 h 71.22581 L 960,-631.74194 c -37.16129,-47.48387 -83.09678,-81.03225 -137.80645,-100.64516 -54.70967,-19.61291 -109.93549,-29.41935 -165.67742,-29.41935 -27.87097,0 -54.96774,2.06451 -81.29032,6.19355 -26.32258,4.12903 -52.90323,11.87097 -79.74194,23.2258 -152.45525,161.38627 -334.97274,327.19512 -123.87097,435.09678 z M 495.48387,-732.3871 C 348.23422,-669.10631 174.79801,-458.14602 0,-284.90323 v 86.70968 h 86.709677 l 176.516133,-176.51613 12.38709,12.3871 c 14.45161,14.45161 29.67743,27.35484 45.67742,38.70968 16,11.35483 32.7742,20.12903 50.32258,26.32258 -88.12461,-194.88556 40.14802,-306.41045 123.87097,-435.09678 z m 210.58065,178.06452 H 563.6129 v 133.16129 c -12.38709,8.25806 -25.29031,13.93548 -38.70967,17.03226 -13.41936,3.09677 -27.35485,4.64516 -41.80646,4.64516 -23.74193,0 -45.16129,-3.6129 -64.25806,-10.83871 -19.09677,-7.22581 -37.93548,-20.12903 -56.51613,-38.70968 l -12.3871,-12.38709 86.70968,-86.70968 c 29.93548,-29.93548 63.48387,-52.38709 100.64516,-67.35484 37.16129,-14.96775 76.90323,-22.45161 119.22581,-22.45161 20.64516,0 40.25806,1.54838 58.83871,4.64516 18.58064,3.09677 37.16129,7.74193 55.74193,13.93548 z" style="fill:#c0c1ff;fill-opacity:1;stroke:none;stroke-width:1.54839;stroke-opacity:1"/></svg>