<?xml version="1.0" encoding="UTF-8" standalone="no"?>
<svg
   version="1.1"
   style="display:block"
   viewBox="0 0 1024 1024"
   width="1024"
   height="1024"
   preserveAspectRatio="none"
   id="svg6"
   sodipodi:docname="favicon.svg"
   inkscape:export-filename="./mnemo.png"
   inkscape:export-xdpi="96"
   inkscape:export-ydpi="96"
   inkscape:version="1.4.3 (0d15f75042, 2025-12-25)"
   xmlns:inkscape="http://www.inkscape.org/namespaces/inkscape"
   xmlns:sodipodi="http://sodipodi.sourceforge.net/DTD/sodipodi-0.dtd"
   xmlns="http://www.w3.org/2000/svg"
   xmlns:svg="http://www.w3.org/2000/svg">
  <defs
     id="defs1" />
  <sodipodi:namedview
     id="namedview6"
     pagecolor="#ffffff"
     bordercolor="#000000"
     borderopacity="0.25"
     inkscape:showpageshadow="2"
     inkscape:pageopacity="0.0"
     inkscape:pagecheckerboard="0"
     inkscape:deskcolor="#d1d1d1"
     inkscape:zoom="0.51919385"
     inkscape:cx="292.76156"
     inkscape:cy="504.62847"
     inkscape:window-width="1920"
     inkscape:window-height="1003"
     inkscape:window-x="0"
     inkscape:window-y="0"
     inkscape:window-maximized="1"
     inkscape:current-layer="svg6"
     showgrid="true">
    <inkscape:grid
       id="grid7"
       units="px"
       originx="0"
       originy="0"
       spacingx="2"
       spacingy="2"
       empcolor="#0099e5"
       empopacity="0.30196078"
       color="#0099e5"
       opacity="0.14901961"
       empspacing="4"
       enabled="true"
       visible="true" />
  </sodipodi:namedview>
  <path
     id="path10"
     style="baseline-shift:baseline;display:inline;overflow:visible;vector-effect:none;fill:#cecefa;stroke-width:0.50071;enable-background:accumulate;stop-color:#000000"
     d="m 512,101.01407 c -109.13318,0 -213.82232,43.29521 -291.00108,120.36036 -77.17876,77.06513 -120.55595,181.62489 -120.55595,290.62555 0,58.32862 12.42187,115.38618 35.79693,167.63843 15.52724,5.48178 35.64832,10.16679 59.53375,12.93437 0.17486,-0.24656 0.34582,-0.4858 0.51049,-0.71782 -31.04029,-54.31722 -47.77291,-116.21927 -47.77291,-179.85498 0,-96.25185 38.28128,-188.5382 106.45193,-256.6085 C 323.13381,187.32117 415.57811,149.08233 512,149.08233 c 10.88392,0 21.71659,0.48698 32.46996,1.44932 12.55928,-4.94173 25.03215,-9.09719 35.81841,-12.61753 l 0.0626,-0.0215 c 20.26627,-6.56828 40.86921,-11.84636 61.68718,-15.82326 C 600.48519,108.24872 556.61406,101.01409 512,101.01409 Z m 365.17282,221.44334 c -9.30877,16.42917 -19.51997,32.3535 -30.59423,47.69664 12.6821,29.82007 21.36233,61.327 25.70058,93.70141 17.64955,-16.5586 31.2324,-32.15693 40.49105,-45.33195 -7.8171,-33.41433 -19.7877,-65.68816 -35.5974,-96.0661 z m 39.1239,266.3978 c -0.15767,0.12693 -0.3154,0.25451 -0.47332,0.38138 -19.02055,15.28157 -39.57068,30.15458 -61.39773,44.51831 -17.92173,50.24305 -46.88893,96.41031 -85.38879,134.85359 C 700.8662,836.67881 608.42192,874.91764 512,874.91764 c -66.91844,0 -131.92163,-18.41635 -188.22428,-52.44165 -26.12603,2.74458 -51.54972,4.3069 -76.00441,4.62181 C 321.5465,888.79385 415.019,922.98592 512,922.98592 c 109.13321,0 213.82237,-43.2972 291.00111,-120.36233 58.78702,-58.70049 97.96274,-133.35255 113.29561,-213.76838 z" />
  <path
     id="path1"
     d="m 751.36624,145.22109 c -54.5075,-1.52407 -109.01103,6.26259 -161.13505,23.15593 -19.61284,6.40111 -41.55876,13.89233 -59.71955,23.63317 -16.96909,9.10442 -53.82998,81.25399 -61.83585,100.24195 -3.3928,8.04642 -6.42186,16.29077 -9.31596,24.52896 -2.0379,5.80075 -3.80845,11.77703 -6.3821,17.36647 0.90728,-25.09815 4.08386,-50.06447 9.49004,-74.59029 2.67429,-11.65956 6.30624,-22.73283 8.97954,-33.9838 -15.39586,9.71479 -31.98448,22.71854 -46.2297,33.78625 -59.69677,46.38286 -104.09006,94.82343 -119.8264,170.83437 -4.26105,20.58474 -7.64081,43.77747 -7.82556,64.91249 -8.95372,-21.18508 -14.86181,-65.30264 -13.92799,-88.15057 -32.97331,54.27255 -49.86482,116.79124 -48.71371,180.28139 0.11068,12.29747 1.45902,36.13576 4.09176,48.1328 8.47854,-10.05428 17.48841,-23.91286 25.92939,-34.80332 16.33471,-20.94974 33.50225,-41.23341 51.46175,-60.80119 122.43584,-134.08089 273.14438,-239.26602 441.22804,-307.94704 -16.1329,10.74476 -33.54804,19.57973 -50.2217,29.8373 -187.17579,115.11595 -357.71824,263.03859 -482.4213,445.0871 -4.3702,6.37905 -12.02909,16.62209 -15.37534,23.26151 -0.005,0.007 -36.9618,57.19307 -38.7347,60.39242 -16.205,29.24651 -33.45048,58.58152 -48.21494,88.5691 18.01958,-13.07356 37.95249,-24.27868 56.88937,-36.00032 5.72714,-3.54502 17.68343,-9.75409 21.70464,-14.13531 2.36686,-2.57866 60.52345,-106.15463 60.52345,-106.15463 7.03648,-10.63511 14.38767,-20.89131 22.02151,-31.10081 5.35159,-7.15517 12.33611,-17.04891 18.77275,-23.21266 59.08038,-1.66237 117.1338,-15.8463 170.32584,-41.60789 18.62293,-9.07788 39.65253,-21.6564 57.11232,-32.56189 -39.01689,0.14522 -77.69863,-7.24098 -113.91957,-21.75157 17.43176,0.65593 46.34771,-1.54259 63.61573,-3.15489 37.74556,-3.525 84.12656,-15.3503 118.7056,-31.52326 48.73923,-22.79236 98.77551,-62.1092 140.56485,-96.36536 -23.40823,-0.13419 -82.41777,-12.68208 -103.44763,-22.86254 34.75935,0.94885 69.52948,-1.47225 103.82318,-7.23292 10.69517,-1.69542 27.39248,-4.54841 37.86235,-7.32486 6.64443,-6.49372 14.76081,-16.446 20.86949,-23.75639 43.07616,-51.07602 75.12728,-110.50355 94.14928,-174.55449 2.71886,-9.10094 7.37556,-24.47832 9.093,-33.62782 -32.71645,-9.94163 -61.56757,-17.28594 -95.54581,-22.18189 -18.08193,-2.58467 -36.25188,-4.12747 -54.42102,-4.6355 z"
     style="fill:#cecefa;fill-opacity:1;stroke-width:0.50071" />
  <path
     id="path27"
     style="baseline-shift:baseline;display:inline;overflow:visible;vector-effect:none;fill:#cecefa;fill-opacity:1;stroke-width:0.499445;enable-background:accumulate;stop-color:#000000"
     d="m 912.49251,246.2926 c -6.95988,18.89607 -15.39933,37.14289 -24.48984,55.05673 -1.13541,2.23764 -1.89122,4.65814 -3.05904,6.87887 14.47924,4.04237 26.92236,8.91375 37.15041,14.38567 24.00939,12.84483 34.90563,27.44516 38.22615,42.58979 3.32053,15.14461 -0.14282,34.44791 -15.6805,60.24181 -15.53771,25.79391 -43.00286,56.18454 -81.58262,87.1804 -77.15959,61.99175 -191.63206,121.24092 -315.44791,161.78243 -86.90668,28.45621 -173.59773,46.11638 -249.43816,51.85489 -3.07989,4.3499 -6.08513,8.71341 -9.01475,13.11823 -3.20235,5.73003 -16.81035,30.13344 -30.73897,54.65181 91.35031,-2.19507 196.81604,-22.10693 302.95361,-56.85998 130.18341,-42.62647 250.35479,-103.97017 336.8631,-173.47291 43.25415,-34.75138 76.52528,-70.14249 98.45033,-106.53995 21.92508,-36.39744 32.64948,-75.69794 24.70108,-111.94999 -7.9484,-36.252 -33.31564,-63.73517 -67.19503,-81.86034 -12.61227,-6.74754 -26.52932,-12.41399 -41.69786,-17.05746 z M 68.399429,513.10898 c -16.402017,17.69051 -30.153147,35.58487 -41.083726,53.7306 -21.9250416,36.39743 -32.649519,75.69793 -24.7010921,111.94994 7.9484381,36.25206 33.3156311,63.73717 67.1950181,81.86234 19.513988,10.43981 42.151611,18.28907 67.715291,23.7701 1.79996,-3.21312 3.57676,-6.3997 5.32593,-9.55656 0.0948,-0.17098 19.98505,-31.62901 32.76135,-51.39914 -30.78779,-4.66294 -55.68647,-12.43977 -73.70621,-22.08015 -24.009427,-12.84483 -34.90562,-27.44517 -38.226152,-42.5898 -3.188522,-14.54255 -0.121208,-32.92005 13.884944,-57.19646 -5.978201,-28.90583 -9.090421,-58.5397 -9.165353,-88.49087 z" />
</svg>
