<svg xmlns="http://www.w3.org/2000/svg" xmlns:svg="http://www.w3.org/2000/svg" id="svg1" width="32" height="32" fill="#e8eaed" version="1.1" viewBox="0 -960 1280 1280"><path id="path1" d="m 570,-202 c 20.55856,5.81706 32.40287,14.33955 80,14 23.33333,-1.33333 45.5,-6.5 66.5,-15.5 21,-9 40.16667,-22.5 57.5,-40.5 v -44 h 46 l 130,-130 c -24,-30.66667 -53.66667,-52.33333 -89,-65 -35.33333,-12.66667 -71,-19 -107,-19 -18,0 -35.5,1.33333 -52.5,4 -17,2.66667 -34.16667,7.66667 -51.5,15 -98.46068,104.22863 -216.33656,211.31351 -80,281 z m 80,-281 c -95.09873,40.86884 -207.10962,177.11403 -320,289 v 56 h 56 l 114,-114 8,8 c 9.33333,9.33333 19.16667,17.66667 29.5,25 10.33333,7.33333 21.16667,13 32.5,17 -56.91381,-125.86359 25.92893,-197.89008 80,-281 z m 136,115 h -92 v 86 c -8,5.33333 -16.33333,9 -25,11 -8.66667,2 -17.66667,3 -27,3 -15.33333,0 -29.16667,-2.33333 -41.5,-7 -12.33333,-4.66667 -24.5,-13 -36.5,-25 l -8,-8 56,-56 c 19.33333,-19.33333 41,-33.83333 65,-43.5 24,-9.66667 49.66667,-14.5 77,-14.5 13.33333,0 26,1 38,3 12,2 24,5 36,9 z" style="fill:#3f4178;fill-opacity:1;stroke:none;stroke-opacity:1"/></svg>